<?xml version="1.0" encoding="UTF-8"?>
<svg version="1.1" xmlns="http://www.w3.org/2000/svg" width="130" height="149">
<path d="M0 0 C2 2 2 2 2.4375 5 C2.20102655 11.31909613 -0.95739065 16.78009364 -5.16015625 21.34765625 C-10.54927593 26.3049266 -14.9098195 29.03278556 -22.3125 29.625 C-23.19550781 29.69976562 -24.07851562 29.77453125 -24.98828125 29.8515625 C-25.98408203 29.92503906 -25.98408203 29.92503906 -27 30 C-27.23783203 31.01707031 -27.23783203 31.01707031 -27.48046875 32.0546875 C-30.5462718 44.28402343 -35.40652192 54.87463871 -46.13671875 62.1171875 C-54.20575738 66.6170545 -61.69413005 68.69197635 -71 67 C-75.65274226 65.06867302 -78.31635925 60.75916571 -80.3046875 56.28125 C-83.27341952 46.54114046 -80.06360072 35.47910151 -75.84375 26.5546875 C-74.96117201 24.99756776 -73.99283058 23.48924587 -73 22 C-72.34 22 -71.68 22 -71 22 C-71.61238346 25.38612031 -72.49058014 28.50577123 -73.625 31.75 C-75.13053303 36.71900064 -75.5083555 40.98240926 -74 46 C-71.5195567 49.45490317 -68.96458812 50.65779236 -65 52 C-56.31224531 53.08169947 -49.18643049 52.14246385 -42 47 C-34.90258487 40.94013073 -33.09673178 33.44556769 -32.3125 24.4375 C-32.19714054 22.62567795 -32.08897794 20.81330909 -32 19 C-31.4225 18.87625 -30.845 18.7525 -30.25 18.625 C-23.85458212 16.84849503 -20.86974008 12.65414913 -16.6328125 7.7265625 C-11.8335923 2.75645018 -7.06897058 -0.54376697 0 0 Z M-14.5625 11.25 C-15.32691406 11.85328125 -16.09132813 12.4565625 -16.87890625 13.078125 C-18.90651606 14.91529632 -20.44636371 16.75641021 -22 19 C-21.017008 20.21620026 -21.017008 20.21620026 -19.14453125 20.01953125 C-13.7350843 19.53929559 -10.29285698 18.57738082 -6 15 C-4.16699091 12.89424357 -4.16699091 12.89424357 -3 11 C-4.2488427 9.4166747 -4.2488427 9.4166747 -6 8 C-10.49723178 8 -11.19948311 8.54137726 -14.5625 11.25 Z " fill="#27FFE3" transform="translate(99,27)"/>
</svg>
